<?xml version="1.0" encoding="UTF-8" standalone="no"?>
<svg
   xmlns:dc="http://purl.org/dc/elements/1.1/"
   xmlns:cc="http://creativecommons.org/ns#"
   xmlns:rdf="http://www.w3.org/1999/02/22-rdf-syntax-ns#"
   xmlns:svg="http://www.w3.org/2000/svg"
   xmlns="http://www.w3.org/2000/svg"
   xmlns:sodipodi="http://sodipodi.sourceforge.net/DTD/sodipodi-0.dtd"
   xmlns:inkscape="http://www.inkscape.org/namespaces/inkscape"
   width="35"
   height="35"
   viewBox="0 0 9.2604165 9.2604169"
   version="1.1"
   id="svg2635"
   inkscape:version="1.0.2-2 (e86c870879, 2021-01-15)"
   sodipodi:docname="back_to_top_cutecounter_icon.svg">
  <defs
     id="defs2629" />
  <sodipodi:namedview
     id="base"
     pagecolor="#ffffff"
     bordercolor="#666666"
     borderopacity="1.0"
     inkscape:pageopacity="0.0"
     inkscape:pageshadow="2"
     inkscape:zoom="11.2"
     inkscape:cx="5.1667373"
     inkscape:cy="16.585401"
     inkscape:document-units="px"
     inkscape:current-layer="layer1"
     inkscape:document-rotation="0"
     showgrid="false"
     units="px"
     inkscape:window-width="1254"
     inkscape:window-height="728"
     inkscape:window-x="7"
     inkscape:window-y="12"
     inkscape:window-maximized="0" />
  <metadata
     id="metadata2632">
    <rdf:RDF>
      <cc:Work
         rdf:about="">
        <dc:format>image/svg+xml</dc:format>
        <dc:type
           rdf:resource="http://purl.org/dc/dcmitype/StillImage" />
        <dc:title></dc:title>
      </cc:Work>
    </rdf:RDF>
  </metadata>
  <g
     inkscape:label="Ebene 1"
     inkscape:groupmode="layer"
     id="layer1">
    <g
       id="g6059"
       transform="matrix(2.0443524,0,0,2.0443524,518.62696,-1729.1244)">
      <circle
         style="fill:#c9dbf4;fill-opacity:1;stroke:none;stroke-width:0.200039;stroke-dasharray:none;stroke-opacity:1"
         id="path7816-5-7-3-4"
         cx="-251.42278"
         cy="848.07031"
         r="2.2648778" />
      <path
         style="fill:#90addb;fill-opacity:1;stroke:none;stroke-width:0.121406;stroke-dasharray:none;stroke-opacity:1"
         d="m -251.57106,848.97523 -2e-4,-1.83316 c 0,0 0,-0.0934 0.1446,-0.0939 0.15243,-4.1e-4 0.15243,0.0944 0.15243,0.0944 l -1.6e-4,1.83262 c 0,0 0,0.11792 -0.14554,0.11738 -0.14994,-4.1e-4 -0.15113,-0.11738 -0.15113,-0.11738 z"
         id="path8240-5-6-0-1"
         sodipodi:nodetypes="ccsccsc" />
      <path
         style="fill:#90addb;fill-opacity:1;stroke:none;stroke-width:0.121406;stroke-dasharray:none;stroke-opacity:1"
         d="m -252.32758,847.92204 1.83319,-2e-4 c 0,0 0.0933,0 0.0939,0.1446 0,0.15248 -0.0944,0.15248 -0.0944,0.15248 l -1.83262,-2.1e-4 c 0,0 -0.11791,-0.004 -0.11737,-0.14554 0,-0.14994 0.11737,-0.15113 0.11737,-0.15113 z"
         id="path8240-2-7-2-8-7"
         sodipodi:nodetypes="ccsccsc" />
    </g>
  </g>
</svg>
