<?xml version="1.0" encoding="UTF-8" standalone="no"?>
<svg
   xmlns:dc="http://purl.org/dc/elements/1.1/"
   xmlns:cc="http://creativecommons.org/ns#"
   xmlns:rdf="http://www.w3.org/1999/02/22-rdf-syntax-ns#"
   xmlns:svg="http://www.w3.org/2000/svg"
   xmlns="http://www.w3.org/2000/svg"
   xmlns:sodipodi="http://sodipodi.sourceforge.net/DTD/sodipodi-0.dtd"
   xmlns:inkscape="http://www.inkscape.org/namespaces/inkscape"
   width="35"
   height="35"
   viewBox="-0.1 0 35 35"
   version="1.1"
   id="svg2635"
   inkscape:version="1.0.2-2 (e86c870879, 2021-01-15)"
   sodipodi:docname="back_to_top_sam_icon.svg">
  <defs
     id="defs2629" />
  <sodipodi:namedview
     id="base"
     pagecolor="#ffffff"
     bordercolor="#666666"
     borderopacity="1.0"
     inkscape:pageopacity="0.0"
     inkscape:pageshadow="2"
     inkscape:zoom="7.9195959"
     inkscape:cx="7.6197048"
     inkscape:cy="30.037967"
     inkscape:document-units="px"
     inkscape:current-layer="layer1"
     inkscape:document-rotation="0"
     showgrid="false"
     units="px"
     inkscape:window-width="1254"
     inkscape:window-height="728"
     inkscape:window-x="7"
     inkscape:window-y="0"
     inkscape:window-maximized="0" />
  <metadata
     id="metadata2632">
    <rdf:RDF>
      <cc:Work
         rdf:about="">
        <dc:format>image/svg+xml</dc:format>
        <dc:type
           rdf:resource="http://purl.org/dc/dcmitype/StillImage" />
        <dc:title></dc:title>
      </cc:Work>
    </rdf:RDF>
  </metadata>
  <g
     inkscape:label="Ebene 1"
     inkscape:groupmode="layer"
     id="layer1">
    <path
       style="fill:none;stroke:#f4c749;stroke-width:1.54936;stroke-linecap:butt;stroke-linejoin:miter;stroke-miterlimit:4;stroke-dasharray:none;stroke-opacity:1"
       d="M 1.434879,11.907934 C 2.4680605,8.8375723 4.5723104,6.0269306 7.1236562,4.0797233 8.5885313,2.9616889 10.293924,2.1258213 12.080412,1.5754679 c 1.193319,-0.3674272 2.422824,-0.60765304 3.641029,-0.71910205 3.355503,-0.30717394 6.926757,0.27429055 9.955345,1.77609565 2.633389,1.3058832 4.978389,3.4570854 6.529157,5.9861509 1.245758,2.0316806 1.771531,4.5190016 1.939351,6.9076736 0.204722,2.91382 0.0598,6.040497 -1.163617,8.683177 -1.286819,2.77953 -3.659605,5.025642 -6.141272,6.775943 -2.256127,1.5912 -4.904318,2.811035 -7.628129,3.15759 -2.128804,0.270943 -4.363027,-0.141772 -6.375327,-0.89809 C 9.8536777,32.122737 6.9143109,30.424615 4.8066942,28.000698 2.9902336,25.911718 1.8196301,23.186534 1.2409555,20.459971 0.64941339,17.672762 0.52712278,14.605551 1.434879,11.907934 Z"
       id="path13701"
       sodipodi:nodetypes="asssaaaaaaaaaa" />
    <path
       style="fill:none;stroke:#f4c749;stroke-width:1.54936;stroke-linecap:butt;stroke-linejoin:miter;stroke-miterlimit:4;stroke-dasharray:none;stroke-opacity:1"
       d="m 12.134301,1.6473388 5.386941,3.0299955 5.286552,-2.8602622 v 0"
       id="path13703" />
    <path
       style="fill:none;stroke:#f4c749;stroke-width:1.54936;stroke-linecap:butt;stroke-linejoin:miter;stroke-miterlimit:4;stroke-dasharray:none;stroke-opacity:1"
       d="m 30.983095,6.9043452 -1.383083,6.6599648 4.14896,4.017678 v 0"
       id="path13705"
       sodipodi:nodetypes="cccc" />
    <path
       style="fill:none;stroke:#f4c749;stroke-width:1.54936;stroke-linecap:butt;stroke-linejoin:miter;stroke-miterlimit:4;stroke-dasharray:none;stroke-opacity:1"
       d="m 30.168837,27.898504 -5.186108,0.578708 v 0 l -2.944437,4.835233 v 0"
       id="path13707" />
    <path
       style="fill:none;stroke:#f4c749;stroke-width:1.54936;stroke-linecap:butt;stroke-linejoin:miter;stroke-miterlimit:4;stroke-dasharray:none;stroke-opacity:1"
       d="M 12.836949,33.244906 10.026336,28.443934 4.8066942,28.000698"
       id="path13709" />
    <path
       style="fill:none;stroke:#f4c749;stroke-width:1.54936;stroke-linecap:butt;stroke-linejoin:miter;stroke-miterlimit:4;stroke-dasharray:none;stroke-opacity:1"
       d="M 0.93873128,17.941736 5.2415999,13.700175 3.883168,7.4141362"
       id="path13713"
       sodipodi:nodetypes="ccc" />
    <path
       style="fill:none;stroke:#f4c749;stroke-width:1.54936;stroke-linecap:butt;stroke-linejoin:miter;stroke-miterlimit:4;stroke-dasharray:none;stroke-opacity:1"
       d="m 17.521242,4.6773343 0.07217,7.0140027 v 0"
       id="path13715" />
    <path
       style="fill:none;stroke:#f4c749;stroke-width:1.54936;stroke-linecap:butt;stroke-linejoin:miter;stroke-miterlimit:4;stroke-dasharray:none;stroke-opacity:1"
       d="M 23.410115,16.015401 29.600012,13.56431"
       id="path13717" />
    <path
       style="fill:none;stroke:#f4c749;stroke-width:1.54936;stroke-linecap:butt;stroke-linejoin:miter;stroke-miterlimit:4;stroke-dasharray:none;stroke-opacity:1"
       d="m 20.934059,23.029994 4.04867,5.447218"
       id="path13719" />
    <path
       style="fill:none;stroke:#f4c749;stroke-width:1.54936;stroke-linecap:butt;stroke-linejoin:miter;stroke-miterlimit:4;stroke-dasharray:none;stroke-opacity:1"
       d="m 13.90765,23.131991 -3.881314,5.311943"
       id="path13721" />
    <path
       style="fill:none;stroke:#f4c749;stroke-width:1.54936;stroke-linecap:butt;stroke-linejoin:miter;stroke-miterlimit:4;stroke-dasharray:none;stroke-opacity:1"
       d="m 5.2415999,13.700175 6.2957031,2.213228 2.375629,7.218392 7.026429,-0.102393 2.475998,-7.014001 -5.821904,-4.324064 -6.056152,4.22187"
       id="path13723"
       sodipodi:nodetypes="ccccccc" />
  </g>
</svg>
