<?xml version="1.0" encoding="UTF-8" standalone="no"?>
<svg
   xmlns:dc="http://purl.org/dc/elements/1.1/"
   xmlns:cc="http://creativecommons.org/ns#"
   xmlns:rdf="http://www.w3.org/1999/02/22-rdf-syntax-ns#"
   xmlns:svg="http://www.w3.org/2000/svg"
   xmlns="http://www.w3.org/2000/svg"
   xmlns:sodipodi="http://sodipodi.sourceforge.net/DTD/sodipodi-0.dtd"
   xmlns:inkscape="http://www.inkscape.org/namespaces/inkscape"
   width="600"
   height="600"
   viewBox="0 0 158.75 158.75001"
   version="1.1"
   id="svg2654"
   inkscape:version="1.0.2-2 (e86c870879, 2021-01-15)"
   sodipodi:docname="emblem_cutecounter_900_900.svg">
  <defs
     id="defs2648" />
  <sodipodi:namedview
     id="base"
     pagecolor="#ffffff"
     bordercolor="#666666"
     borderopacity="1.0"
     inkscape:pageopacity="0.0"
     inkscape:pageshadow="2"
     inkscape:zoom="0.24748737"
     inkscape:cx="-82.798004"
     inkscape:cy="215.42487"
     inkscape:document-units="px"
     inkscape:current-layer="layer1"
     inkscape:document-rotation="0"
     showgrid="false"
     units="px"
     inkscape:window-width="1254"
     inkscape:window-height="728"
     inkscape:window-x="96"
     inkscape:window-y="0"
     inkscape:window-maximized="0"
     scale-x="10" />
  <metadata
     id="metadata2651">
    <rdf:RDF>
      <cc:Work
         rdf:about="">
        <dc:format>image/svg+xml</dc:format>
        <dc:type
           rdf:resource="http://purl.org/dc/dcmitype/StillImage" />
        <dc:title></dc:title>
      </cc:Work>
    </rdf:RDF>
  </metadata>
  <g
     inkscape:label="Ebene 1"
     inkscape:groupmode="layer"
     id="layer1">
    <g
       id="g6054-4-7"
       transform="matrix(-22.737996,0,0,22.9505,-5751.0252,-19418.767)">
      <ellipse
         style="fill:#f37690;fill-opacity:1;stroke:none;stroke-width:0.270492;stroke-dasharray:none;stroke-opacity:1"
         id="path7750-4-4-0-6-9-5"
         cx="-256.41663"
         cy="849.57373"
         rx="3.4908531"
         ry="3.4585304" />
      <ellipse
         style="fill:#f3b0c3;fill-opacity:1;stroke:none;stroke-width:0.146691;stroke-dasharray:none;stroke-opacity:1"
         id="path7750-1-24-5-7-4-0-3"
         cx="-255.75284"
         cy="849.76868"
         rx="1.9530767"
         ry="1.8180425" />
      <ellipse
         style="fill:#f38aaa;fill-opacity:1;stroke:none;stroke-width:0.140551;stroke-dasharray:none;stroke-opacity:1"
         id="path7750-1-2-0-2-6-1-9-8"
         cx="-255.9791"
         cy="849.82428"
         rx="1.7978834"
         ry="1.8130987" />
      <path
         style="fill:#f3b0c3;fill-opacity:1;stroke:none;stroke-width:0.192918;stroke-dasharray:none;stroke-opacity:1"
         d="m -256.51936,848.25085 c 0.009,0.0164 -0.54033,-0.29752 -0.75805,-0.44922 -0.23492,-0.16373 -0.78255,-0.60076 -0.78255,-0.60076 0,0.004 0.39092,-0.0431 1.10106,0.39975 0.31965,0.19933 0.43954,0.65023 0.43954,0.65023 z"
         id="path9373-3-8-7-1-4-9"
         sodipodi:nodetypes="cscsc" />
      <path
         style="fill:#f3b0c3;fill-opacity:1;stroke:none;stroke-width:0.192918;stroke-dasharray:none;stroke-opacity:1"
         d="m -256.44115,848.23127 c 0,0 0.3876,-0.56541 0.51893,-0.77434 0.16386,-0.26058 0.46007,-0.81232 0.46007,-0.81232 -0.47337,0.0964 -0.59834,0.13523 -0.81018,0.28693 -0.30624,0.21933 -0.46713,0.96221 -0.16882,1.29973 z"
         id="path9373-7-2-9-0-0-7-6"
         sodipodi:nodetypes="cscscc" />
      <path
         style="fill:#f38aaa;fill-opacity:1;stroke:none;stroke-width:0.376406;stroke-dasharray:none;stroke-opacity:1"
         d="m -255.20448,851.83181 c 0,0 -1.18712,-0.49967 -1.62571,-0.73785 -0.54719,-0.2971 -1.6916,-1.05116 -1.6916,-1.05116 0.0975,0.89334 0.26994,1.30191 0.58848,1.68599 0.63151,0.65569 1.95686,0.73819 2.72883,0.10299 z"
         id="path9373-7-4-4-1-4-7-2-9"
         sodipodi:nodetypes="cscccc" />
      <path
         style="fill:#f3b0c3;fill-opacity:1;stroke:none;stroke-width:0.376406;stroke-dasharray:none;stroke-opacity:1"
         d="m -255.19044,851.81081 c 0,0 -1.18712,-0.70268 -1.6258,-0.94088 -0.54709,-0.2971 -1.70555,-0.83416 -1.70555,-0.83416 0.20252,0.85838 0.35402,1.09892 0.67244,1.48301 0.46052,0.55527 1.95025,0.83297 2.65891,0.29207 z"
         id="path9373-7-4-0-8-0-4-1-4-1"
         sodipodi:nodetypes="cscscc" />
      <path
         style="fill:#f38aaa;fill-opacity:1;stroke:none;stroke-width:0.3601;stroke-dasharray:none;stroke-opacity:1"
         d="m -256.45684,851.33285 c 0,0 0.10339,-0.0359 -0.31632,-0.26388 -0.52338,-0.28423 -0.82131,-0.45645 -0.82131,-0.45645 -0.0349,0.74117 0.34601,1.06957 1.13763,0.72033 z"
         id="path9373-7-4-3-0-2-8-5-9-3"
         sodipodi:nodetypes="cscc" />
      <path
         style="fill:#f37690;fill-opacity:1;stroke:none;stroke-width:0.0609633;stroke-dasharray:none;stroke-opacity:1"
         d="m -256.9238,851.11264 c -0.0523,-0.0789 -0.30919,-0.11901 -0.41092,-0.10524 -0.12251,0.0166 0.13757,0.29062 0.17707,0.32583 0.13794,0.11136 0.3252,-0.0476 0.23385,-0.22058 z"
         id="path9373-7-41-2-4-9-9-7-9"
         sodipodi:nodetypes="csccc" />
    </g>
  </g>
</svg>
