<?xml version="1.0" encoding="UTF-8" standalone="no"?>
<svg
   xmlns:dc="http://purl.org/dc/elements/1.1/"
   xmlns:cc="http://creativecommons.org/ns#"
   xmlns:rdf="http://www.w3.org/1999/02/22-rdf-syntax-ns#"
   xmlns:svg="http://www.w3.org/2000/svg"
   xmlns="http://www.w3.org/2000/svg"
   xmlns:sodipodi="http://sodipodi.sourceforge.net/DTD/sodipodi-0.dtd"
   xmlns:inkscape="http://www.inkscape.org/namespaces/inkscape"
   width="1440"
   height="955"
   viewBox="0 0 381 252.67709"
   version="1.1"
   id="svg3039"
   inkscape:version="1.0.2-2 (e86c870879, 2021-01-15)"
   sodipodi:docname="thres_blue_720_1920.svg">
  <defs
     id="defs3033" />
  <sodipodi:namedview
     id="base"
     pagecolor="#e9e1d5"
     bordercolor="#666666"
     borderopacity="1.0"
     inkscape:pageopacity="0"
     inkscape:pageshadow="2"
     inkscape:zoom="0.35"
     inkscape:cx="400.09183"
     inkscape:cy="559.99752"
     inkscape:document-units="px"
     inkscape:current-layer="layer1"
     inkscape:document-rotation="0"
     showgrid="false"
     units="px"
     inkscape:window-width="1254"
     inkscape:window-height="728"
     inkscape:window-x="96"
     inkscape:window-y="0"
     inkscape:window-maximized="0" />
  <metadata
     id="metadata3036">
    <rdf:RDF>
      <cc:Work
         rdf:about="">
        <dc:format>image/svg+xml</dc:format>
        <dc:type
           rdf:resource="http://purl.org/dc/dcmitype/StillImage" />
        <dc:title></dc:title>
      </cc:Work>
    </rdf:RDF>
  </metadata>
  <g
     inkscape:label="Ebene 1"
     inkscape:groupmode="layer"
     id="layer1">
    <g
       id="g20278-9"
       style="fill:#936654;fill-opacity:1"
       inkscape:export-xdpi="96"
       inkscape:export-ydpi="96"
       transform="matrix(0.51430604,0,0,0.51481752,139.09188,971.95691)">
      <g
         id="g20146-9"
         transform="matrix(0.49502255,0,0,0.49502255,842.06977,-1078.8912)"
         style="fill:#936654;fill-opacity:1">
        <path
           style="fill:#936654;fill-opacity:1;stroke:#312f2e;stroke-width:0.264509px;stroke-linecap:butt;stroke-linejoin:miter;stroke-opacity:1"
           d="m -1490.8707,-1553.425 c 4.059,3.9976 8.3426,8.7769 12.9093,14.3985 34.6312,42.6308 57.3583,35.1842 85.4202,0 28.0617,-35.1841 63.0274,-33.0394 95.1212,0 32.0937,33.0395 62.4284,31.5121 92.9837,0 30.5552,-31.512 68.6265,-23.7379 98.3275,0 29.7011,23.738 47.938,46.3455 90.8462,0 42.90832,-46.3454 70.4133,-31.6833 98.32766,0 27.91436,31.6834 57.19484,35.1891 89.77739,0 27.91387,-30.1468 50.89561,-46.8499 76.16012,-18.2821"
           id="path16830-74-5-5-1"
           sodipodi:nodetypes="cszzzzzzsc" />
        <path
           style="fill:#936654;fill-opacity:1;stroke:#312f2e;stroke-width:0.264509px;stroke-linecap:butt;stroke-linejoin:miter;stroke-opacity:1"
           d="m -1501.4413,-1497.0636 c 1.2539,1.4634 2.5294,2.9936 3.8277,4.5919 34.6312,42.6308 57.3584,35.1841 85.4201,0 28.0618,-35.1842 63.0275,-33.0395 95.1213,0 32.0937,33.0394 62.4284,31.512 92.9837,0 30.5552,-31.5121 68.6264,-23.738 98.3276,0 29.7011,23.7379 47.9379,46.3455 90.8462,0 42.90824,-46.3455 70.41321,-31.6833 98.32758,0 27.91436,31.6833 57.19474,35.189 89.77729,0 31.20614,-33.7026 56.24801,-50.6029 85.20668,-6.2326"
           id="path16830-6-4-1-2-5"
           sodipodi:nodetypes="cszzzzzzsc" />
        <path
           style="fill:#936654;fill-opacity:1;stroke:#312f2e;stroke-width:0.264509px;stroke-linecap:butt;stroke-linejoin:miter;stroke-opacity:1"
           d="m -1501.4492,-1436.2416 c 2.2161,2.4628 4.4995,5.1421 6.8586,8.0461 34.6312,42.6309 57.3583,35.1841 85.4201,0 28.0618,-35.1841 63.0275,-33.0394 95.1213,0 32.0936,33.0395 62.4283,31.5121 92.9836,0 30.5553,-31.512 68.6266,-23.7379 98.3276,0 29.7011,23.738 47.938,46.3455 90.8462,0 42.90829,-46.3455 70.41327,-31.6833 98.32763,0 27.91436,31.6833 57.19484,35.189 89.77739,0 30.12254,-32.5321 54.5014,-49.4089 82.20362,-10.635"
           id="path16830-7-6-4-8-4"
           sodipodi:nodetypes="cszzzzzzsc" />
        <path
           style="fill:#936654;fill-opacity:1;stroke:#312f2e;stroke-width:0.264509px;stroke-linecap:butt;stroke-linejoin:miter;stroke-opacity:1"
           d="m -1501.4546,-1392.846 c 3.6081,3.6748 7.3944,7.9562 11.3984,12.885 34.6313,42.6308 57.3584,35.1841 85.4202,0 28.0617,-35.1842 63.0274,-33.0395 95.1212,0 32.0938,33.0394 62.4285,31.512 92.9837,0 30.5552,-31.5121 68.6265,-23.738 98.3276,0 29.701,23.7379 47.9379,46.3455 90.8462,0 42.90821,-46.3455 70.41319,-31.6833 98.32755,0 27.91437,31.6833 57.19485,35.189 89.7773,0 28.46361,-30.7407 51.79895,-47.5027 77.65559,-16.5412"
           id="path16830-9-7-9-0-2"
           sodipodi:nodetypes="cszzzzzzsc" />
        <path
           style="fill:#936654;fill-opacity:1;stroke:#312f2e;stroke-width:1.04296px;stroke-linecap:butt;stroke-linejoin:miter;stroke-opacity:1"
           d="m -1507.0226,-703.1771 c 8.2988,-73.40327 17.3948,-205.8942 28.0242,-409.3262 34.6312,-662.789 57.3584,-547.0134 85.4201,0 28.0617,547.01342 63.0275,513.66889 95.1213,0 32.0937,-513.6698 62.4284,-489.9231 92.9837,0 30.5552,489.924 68.6264,369.05902 98.3276,0 29.7011,-369.0572 47.9378,-720.5418 90.8461,0 42.90826,720.54182 70.41323,492.58558 98.3276,0 27.91436,-492.5856 57.19479,-547.0895 89.77739,0 13.0357,218.8805 24.99573,392.17824 36.61495,469.4982"
           id="path16830-77-1-2-3-49"
           sodipodi:nodetypes="cszzzzzzsc" />
        <path
           style="fill:#936654;fill-opacity:1;stroke:#312f2e;stroke-width:0.264509px;stroke-linecap:butt;stroke-linejoin:miter;stroke-opacity:1"
           d="m -1505.6843,-1324.0825 c 11.9924,0.9782 24.9132,10.2714 41.6245,30.8428 34.6312,42.6308 57.3583,35.1842 85.42,0 28.0618,-35.1841 63.0275,-33.0394 95.1213,0 32.0938,33.0395 62.4284,31.5121 92.9837,0 30.5552,-31.512 68.6265,-23.7379 98.3276,0 29.701,23.738 47.9379,46.3455 90.8461,0 42.9083,-46.3454 70.41327,-31.6833 98.32764,0 27.91436,31.6833 57.19484,35.1891 89.77739,0 17.1085,-18.4771 32.36431,-31.904 47.42838,-32.953"
           id="path16830-73-8-5-2-9"
           sodipodi:nodetypes="cszzzzzzsc" />
        <path
           style="fill:#936654;fill-opacity:1;stroke:#312f2e;stroke-width:0.264509px;stroke-linecap:butt;stroke-linejoin:miter;stroke-opacity:1"
           d="m -1501.4499,-1133.8721 c 14.222,-2.9422 28.9139,5.418 49.1808,30.3665 34.6311,42.6308 57.3583,35.1841 85.4201,0 28.0617,-35.1842 63.0275,-33.0395 95.1212,0 32.0938,33.0394 62.4284,31.512 92.9837,0 30.5552,-31.5121 68.6265,-23.738 98.3276,0 29.701,23.7379 47.9379,46.3454 90.84615,0 42.90816,-46.3455 70.41323,-31.6833 98.3276,0 27.91436,31.6833 57.19484,35.189 89.77739,0 14.2535,-15.3937 27.22086,-27.2821 39.86291,-31.4278"
           id="path16830-2-2-6-2-8"
           sodipodi:nodetypes="cszzzzzzsc" />
        <path
           style="fill:#936654;fill-opacity:1;stroke:#312f2e;stroke-width:0.264509px;stroke-linecap:butt;stroke-linejoin:miter;stroke-opacity:1"
           d="m -1501.4472,-1244.2481 c 19.6551,-13.8874 36.8707,-10.4997 64.2928,23.2567 34.6312,42.6308 57.3584,35.1841 85.4201,0 28.0618,-35.1841 63.0275,-33.0394 95.1213,0 32.0937,33.0394 62.4284,31.512 92.9837,0 30.5552,-31.5121 68.6265,-23.738 98.3276,0 29.7011,23.7379 47.9379,46.3455 90.84611,0 42.90825,-46.3455 70.41323,-31.6833 98.32759,0 27.91436,31.6833 57.19484,35.189 89.77739,0 8.65947,-9.3522 16.84428,-17.4105 24.76975,-23.225"
           id="path16830-1-53-2-5-1"
           sodipodi:nodetypes="cszzzzzzsc" />
        <path
           style="fill:#936654;fill-opacity:1;stroke:#312f2e;stroke-width:0.264509px;stroke-linecap:butt;stroke-linejoin:miter;stroke-opacity:1"
           d="m -1501.4511,-1184.2197 c 26.9294,-26.8911 45.2512,-31.9672 79.4116,10.0841 34.6312,42.6308 57.3583,35.1841 85.4201,0 28.0617,-35.1841 63.0274,-33.0394 95.1212,0 32.0938,33.0394 62.4284,31.5121 92.9837,0 30.5552,-31.512 68.6265,-23.7379 98.3277,0 29.701,23.738 47.9379,46.3455 90.84617,0 42.90825,-46.3455 70.41323,-31.6833 98.32759,0 27.91436,31.6833 57.19484,35.189 89.77729,0 3.27538,-3.5374 6.48288,-6.8897 9.6341,-10.0056"
           id="path16830-5-42-0-1-67"
           sodipodi:nodetypes="cszzzzzzsc" />
      </g>
      <g
         id="g20146-5-4"
         transform="matrix(0.49502255,0,0,0.49502255,475.82094,-1109.7007)"
         style="fill:#936654;fill-opacity:1">
        <path
           style="fill:#936654;fill-opacity:1;stroke:#312f2e;stroke-width:0.264509px;stroke-linecap:butt;stroke-linejoin:miter;stroke-opacity:1"
           d="m -1490.8707,-1553.425 c 4.059,3.9976 8.3426,8.7769 12.9093,14.3985 34.6312,42.6308 57.3583,35.1842 85.4202,0 28.0617,-35.1841 63.0274,-33.0394 95.1212,0 32.0937,33.0395 62.4284,31.5121 92.9837,0 30.5552,-31.512 68.6265,-23.7379 98.3275,0 29.7011,23.738 47.938,46.3455 90.8462,0 42.90832,-46.3454 70.4133,-31.6833 98.32766,0 27.91436,31.6834 57.19484,35.1891 89.77739,0 27.91387,-30.1468 50.89561,-46.8499 76.16012,-18.2821"
           id="path16830-74-5-5-2-2"
           sodipodi:nodetypes="cszzzzzzsc" />
        <path
           style="fill:#936654;fill-opacity:1;stroke:#312f2e;stroke-width:0.264509px;stroke-linecap:butt;stroke-linejoin:miter;stroke-opacity:1"
           d="m -1501.4413,-1497.0636 c 1.2539,1.4634 2.5294,2.9936 3.8277,4.5919 34.6312,42.6308 57.3584,35.1841 85.4201,0 28.0618,-35.1842 63.0275,-33.0395 95.1213,0 32.0937,33.0394 62.4284,31.512 92.9837,0 30.5552,-31.5121 68.6264,-23.738 98.3276,0 29.7011,23.7379 47.9379,46.3455 90.8462,0 42.90824,-46.3455 70.41321,-31.6833 98.32758,0 27.91436,31.6833 57.19474,35.189 89.77729,0 31.20614,-33.7026 56.24801,-50.6029 85.20668,-6.2326"
           id="path16830-6-4-1-2-4-7"
           sodipodi:nodetypes="cszzzzzzsc" />
        <path
           style="fill:#936654;fill-opacity:1;stroke:#312f2e;stroke-width:0.264509px;stroke-linecap:butt;stroke-linejoin:miter;stroke-opacity:1"
           d="m -1501.4492,-1436.2416 c 2.2161,2.4628 4.4995,5.1421 6.8586,8.0461 34.6312,42.6309 57.3583,35.1841 85.4201,0 28.0618,-35.1841 63.0275,-33.0394 95.1213,0 32.0936,33.0395 62.4283,31.5121 92.9836,0 30.5553,-31.512 68.6266,-23.7379 98.3276,0 29.7011,23.738 47.938,46.3455 90.8462,0 42.90829,-46.3455 70.41327,-31.6833 98.32763,0 27.91436,31.6833 57.19484,35.189 89.77739,0 30.12254,-32.5321 54.5014,-49.4089 82.20362,-10.635"
           id="path16830-7-6-4-8-2-5"
           sodipodi:nodetypes="cszzzzzzsc" />
        <path
           style="fill:#936654;fill-opacity:1;stroke:#312f2e;stroke-width:0.264509px;stroke-linecap:butt;stroke-linejoin:miter;stroke-opacity:1"
           d="m -1501.4546,-1392.846 c 3.6081,3.6748 7.3944,7.9562 11.3984,12.885 34.6313,42.6308 57.3584,35.1841 85.4202,0 28.0617,-35.1842 63.0274,-33.0395 95.1212,0 32.0938,33.0394 62.4285,31.512 92.9837,0 30.5552,-31.5121 68.6265,-23.738 98.3276,0 29.701,23.7379 47.9379,46.3455 90.8462,0 42.90821,-46.3455 70.41319,-31.6833 98.32755,0 27.91437,31.6833 57.19485,35.189 89.7773,0 28.46361,-30.7407 51.79895,-47.5027 77.65559,-16.5412"
           id="path16830-9-7-9-0-7-8"
           sodipodi:nodetypes="cszzzzzzsc" />
        <path
           style="fill:#936654;fill-opacity:1;stroke:#312f2e;stroke-width:1.04296px;stroke-linecap:butt;stroke-linejoin:miter;stroke-opacity:1"
           d="m -1507.0226,-703.1771 c 8.2988,-73.40327 17.3948,-205.8942 28.0242,-409.3262 34.6312,-662.789 57.3584,-547.0134 85.4201,0 28.0617,547.01342 63.0275,513.66889 95.1213,0 32.0937,-513.6698 62.4284,-489.9231 92.9837,0 30.5552,489.924 68.6264,369.05902 98.3276,0 29.7011,-369.0572 47.9378,-720.5418 90.8461,0 42.90826,720.54182 70.41323,492.58558 98.3276,0 27.91436,-492.5856 57.19484,-547.0895 89.77739,0 22.26215,373.80039 41.38708,614.65764 61.03496,471.5648"
           id="path16830-77-1-2-3-4-1"
           sodipodi:nodetypes="cszzzzzzsc" />
        <path
           style="fill:#936654;fill-opacity:1;stroke:#312f2e;stroke-width:0.264509px;stroke-linecap:butt;stroke-linejoin:miter;stroke-opacity:1"
           d="m -1505.6843,-1324.0825 c 11.9924,0.9782 24.9132,10.2714 41.6245,30.8428 34.6312,42.6308 57.3583,35.1842 85.42,0 28.0618,-35.1841 63.0275,-33.0394 95.1213,0 32.0938,33.0395 62.4284,31.5121 92.9837,0 30.5552,-31.512 68.6265,-23.7379 98.3276,0 29.701,23.738 47.9379,46.3455 90.8461,0 42.9083,-46.3454 70.41327,-31.6833 98.32764,0 27.91436,31.6833 57.19484,35.1891 89.77739,0 17.1085,-18.4771 32.36431,-31.904 47.42838,-32.953"
           id="path16830-73-8-5-2-4-7"
           sodipodi:nodetypes="cszzzzzzsc" />
        <path
           style="fill:#936654;fill-opacity:1;stroke:#312f2e;stroke-width:0.264509px;stroke-linecap:butt;stroke-linejoin:miter;stroke-opacity:1"
           d="m -1501.4499,-1133.8721 c 14.222,-2.9422 28.9139,5.418 49.1808,30.3665 34.6311,42.6308 57.3583,35.1841 85.4201,0 28.0617,-35.1842 63.0275,-33.0395 95.1212,0 32.0938,33.0394 62.4284,31.512 92.9837,0 30.5552,-31.5121 68.6265,-23.738 98.3276,0 29.701,23.7379 47.9379,46.3454 90.84615,0 42.90816,-46.3455 70.41323,-31.6833 98.3276,0 27.91436,31.6833 57.19484,35.189 89.77739,0 14.2535,-15.3937 27.22086,-27.2821 39.86291,-31.4278"
           id="path16830-2-2-6-2-6-3"
           sodipodi:nodetypes="cszzzzzzsc" />
        <path
           style="fill:#936654;fill-opacity:1;stroke:#312f2e;stroke-width:0.264509px;stroke-linecap:butt;stroke-linejoin:miter;stroke-opacity:1"
           d="m -1501.4472,-1244.2481 c 19.6551,-13.8874 36.8707,-10.4997 64.2928,23.2567 34.6312,42.6308 57.3584,35.1841 85.4201,0 28.0618,-35.1841 63.0275,-33.0394 95.1213,0 32.0937,33.0394 62.4284,31.512 92.9837,0 30.5552,-31.5121 68.6265,-23.738 98.3276,0 29.7011,23.7379 47.9379,46.3455 90.84611,0 42.90825,-46.3455 70.41323,-31.6833 98.32759,0 27.91436,31.6833 57.19484,35.189 89.77739,0 8.65947,-9.3522 16.84428,-17.4105 24.76975,-23.225"
           id="path16830-1-53-2-5-8-0"
           sodipodi:nodetypes="cszzzzzzsc" />
        <path
           style="fill:#936654;fill-opacity:1;stroke:#312f2e;stroke-width:0.264509px;stroke-linecap:butt;stroke-linejoin:miter;stroke-opacity:1"
           d="m -1501.4511,-1184.2197 c 26.9294,-26.8911 45.2512,-31.9672 79.4116,10.0841 34.6312,42.6308 57.3583,35.1841 85.4201,0 28.0617,-35.1841 63.0274,-33.0394 95.1212,0 32.0938,33.0394 62.4284,31.5121 92.9837,0 30.5552,-31.512 68.6265,-23.7379 98.3277,0 29.701,23.738 47.9379,46.3455 90.84617,0 42.90825,-46.3455 70.41323,-31.6833 98.32759,0 27.91436,31.6833 57.19484,35.189 89.77729,0 3.27538,-3.5374 6.48288,-6.8897 9.6341,-10.0056"
           id="path16830-5-42-0-1-6-2"
           sodipodi:nodetypes="cszzzzzzsc" />
      </g>
      <path
         style="fill:#936654;fill-opacity:1;stroke:none;stroke-width:0.264583px;stroke-linecap:butt;stroke-linejoin:miter;stroke-opacity:1"
         d="m 2.4321526,-1521.405 c 1.6607014,1.0264 2.6192413,5.2385 2.6192413,5.2385 0,0 -5.14265329,3.7835 -6.7993907,6.4253 -0.5348773,0.8529 -0.797901,1.8791 -0.9114694,2.8794 -0.8064728,7.1034 1.72402281,21.3778 1.72402281,21.3778 l 1.74704787,1.7177 c 0,0 1.96787362,-0.2326 2.89806942,-0.5516 4.1482993,-1.4225 11.7141381,-5.9888 11.7141381,-5.9888 0,0 2.304065,0.255 2.964702,0.1787 1.728257,-0.1995 4.508651,-0.8557 5.797272,-1.1552 0.452709,-0.029 0.987702,-0.465 0.580078,-0.8749 -0.225273,-0.2216 -0.757098,-0.1489 -0.757098,-0.1489 l -3.383615,0.3037 c 1.458441,-0.3728 3.272122,-0.864 4.909329,-1.2964 0,0 0.636856,-0.1871 0.821638,-0.4103 0.217183,-0.2647 0.306775,-0.4339 0.06315,-0.6745 -0.214444,-0.2118 -0.878346,-0.097 -0.878346,-0.097 l -4.679557,0.3467 4.799109,-1.3952 c 0,0 1.178926,-0.304 1.280299,-0.6765 0.07425,-0.272 -0.115148,-0.6975 -0.551022,-0.6418 l -0.697782,0.089 -4.903113,0.6263 c -0.05099,-0.076 3.280673,-1.1787 4.572472,-1.6591 0.132712,-0.1438 0.220532,-0.4241 0.155402,-0.5661 -0.0554,-0.1207 -0.329912,-0.2091 -0.517002,-0.2218 -1.580848,0.4109 -3.247926,0.8047 -4.463233,1.3004 -0.772085,0.3201 -1.78958,0.4435 -2.739681,0.6874 -0.573221,0.048 -1.245786,0.044 -0.362485,-1.0056 0,0 0.47085,-1.1197 0.573954,-1.4588 0.08969,-0.2951 0.03132,-1.1647 -0.362484,-1.2395 -0.149064,-0.028 -0.37792,0.7991 -0.516897,0.8856 -0.509215,0.3168 -0.653402,0.4329 -0.653402,0.4329 l -2.069669,2.0813 c 0,0 -0.02463,-0.054 -0.612569,0.9525 -0.156729,0.2683 -0.04224,1.62 -0.04224,1.62 l -3.9492946,1.312 -4.6485228,1.1974 -0.2670851,-8.294 5.1784425,4.9832 2.096206,-27.028 c 0,0 -5.589567,-0.4599 -6.3610144,-2.6193 -0.6195473,-1.7342 2.2585514,-3.0584 2.6192413,-4.8643 0.4910143,-2.4584 0.5027094,-5.311 -0.7483546,-7.4835 -1.3820215,-2.3999 -3.9917881,-4.486 -6.73519199,-4.8643 -3.94801411,-0.5444 -8.20673261,1.5137 -11.22532031,4.1159 -1.183709,1.0204 -2.082913,2.5616 -2.245063,4.116 -0.270212,2.5903 1.322913,5.0479 2.245063,7.4835 0.6323217,1.6701 0.7408217,3.9018 2.2450637,4.8643 2.1012198,1.3444 4.9890317,0 7.48354731,0 0.9978062,0 2.14463429,-0.5246 2.99341859,0 z"
         id="path20255-4"
         sodipodi:nodetypes="scssccscscccccsscccsscccsccccsssccsccccccsssssssssss" />
    </g>
  </g>
</svg>
